<?xml version="1.0" encoding="UTF-8"?>
<svg width="512px" height="767px" viewBox="0 0 512 767" version="1.1" xmlns="http://www.w3.org/2000/svg" xmlns:xlink="http://www.w3.org/1999/xlink">
    <title>patternpad (3)</title>
    <g id="Round-3" stroke="none" stroke-width="1" fill="none" fill-rule="evenodd">
        <g id="All-Modules-R3" transform="translate(-905.000000, -3850.000000)" fill-rule="nonzero">
            <g id="Slider-Tabs---Left-Copy" transform="translate(182.000000, 3850.000000)">
                <g id="patternpad-(3)" transform="translate(979.000000, 383.500000) scale(-1, 1) translate(-979.000000, -383.500000) translate(723.000000, 0.000000)">
                    <rect id="Rectangle" fill="#04213B" x="0" y="0" width="512" height="767"></rect>
                    <rect id="Rectangle" fill="#04213C" x="1" y="0" width="255" height="255"></rect>
                    <rect id="Rectangle" fill="#0A2741" x="1" y="0" width="255" height="255"></rect>
                    <rect id="Rectangle" fill="#04213B" x="256" y="0" width="255" height="255"></rect>
                    <rect id="Rectangle" fill="#05223C" x="256" y="0" width="128" height="128"></rect>
                    <polygon id="Path" fill="#05233D" points="384 0 384 128 256 128"></polygon>
                    <rect id="Rectangle" fill="#05233D" x="384" y="0" width="128" height="128"></rect>
                    <polygon id="Path" fill="#05223C" points="384 0 512 0 384 128"></polygon>
                    <rect id="Rectangle" fill="#06243F" x="256" y="128" width="128" height="128"></rect>
                    <polygon id="Path" fill="#06233D" points="256 128 384 128 384 256"></polygon>
                    <rect id="Rectangle" fill="#0E2B44" x="384" y="128" width="128" height="128"></rect>
                    <polygon id="Path" fill="#08253F" points="384 128 512 256 384 256"></polygon>
                    <rect id="Rectangle" fill="#0F2C46" x="1" y="256" width="255" height="255"></rect>
                    <polygon id="Path" fill="#072540" points="1 256 256 511 1 511"></polygon>
                    <rect id="Rectangle" fill="#07243E" x="256" y="256" width="255" height="255"></rect>
                    <polygon id="Path" fill="#072641" points="511 256 511 511 256 511"></polygon>
                    <rect id="Rectangle" fill="#04213B" x="1" y="512" width="255" height="255"></rect>
                    <rect id="Rectangle" fill="#04223C" x="0" y="511" width="128" height="128"></rect>
                    <circle id="Oval" fill="#0F2C45" cx="64" cy="575" r="64"></circle>
                    <rect id="Rectangle" fill="#0B2842" x="128" y="511" width="128" height="128"></rect>
                    <rect id="Rectangle" fill="#022C51" x="128" y="511" width="128" height="128"></rect>
                    <rect id="Rectangle" fill="#102D47" x="0" y="639" width="128" height="128"></rect>
                    <circle id="Oval" fill="#0B2842" cx="64" cy="703" r="64"></circle>
                    <rect id="Rectangle" fill="#0B2842" x="128" y="639" width="128" height="128"></rect>
                    <rect id="Rectangle" fill="#05233E" x="128" y="639" width="128" height="128"></rect>
                    <rect id="Rectangle" fill="#06253F" x="256" y="512" width="255" height="255"></rect>
                    <path d="M256,512 C396.832611,512 511,626.167389 511,767 L256,767" id="Path" fill="#072540"></path>
                </g>
            </g>
        </g>
    </g>
</svg>